<svg width="512" height="512" viewBox="0 0 512 512" fill="none" xmlns="http://www.w3.org/2000/svg">
<path d="M422.4 435.2H89.6L12.8 512V76.8C12.8 34.6 47.4 0 89.6 0H422.4C464.6 0 499.2 34.6 499.2 76.8V358.4C499.2 400.6 464.6 435.2 422.4 435.2Z" fill="#8BC34A"/>
<path d="M203.5 298C198.687 298 194.569 296.286 191.145 292.857C187.721 289.428 186.006 285.301 186 280.476V192.857C186 188.038 187.715 183.914 191.145 180.485C194.575 177.057 198.693 175.339 203.5 175.333H212.25V157.81C212.25 145.689 216.517 135.359 225.051 126.819C233.585 118.279 243.902 114.006 256 114C268.098 113.994 278.417 118.267 286.957 126.819C295.497 135.37 299.762 145.701 299.75 157.81V175.333H308.5C313.312 175.333 317.434 177.051 320.864 180.485C324.294 183.92 326.006 188.044 326 192.857V280.476C326 285.295 324.288 289.422 320.864 292.857C317.44 296.291 313.318 298.006 308.5 298H203.5ZM256 254.19C260.812 254.19 264.934 252.476 268.364 249.047C271.794 245.618 273.506 241.492 273.5 236.667C273.494 231.842 271.782 227.718 268.364 224.295C264.945 220.872 260.824 219.155 256 219.143C251.176 219.131 247.057 220.849 243.645 224.295C240.232 227.741 238.517 231.865 238.5 236.667C238.482 241.468 240.197 245.595 243.645 249.047C247.092 252.499 251.211 254.214 256 254.19ZM229.75 175.333H282.25V157.81C282.25 150.508 279.698 144.302 274.594 139.19C269.49 134.079 263.292 131.524 256 131.524C248.708 131.524 242.51 134.079 237.406 139.19C232.302 144.302 229.75 150.508 229.75 157.81V175.333Z" fill="black"/>
</svg>
